<?xml version="1.0" encoding="UTF-8"?>
<svg xmlns="http://www.w3.org/2000/svg" xmlns:xlink="http://www.w3.org/1999/xlink" width="200px" height="117px" viewBox="0 0 199 117" version="1.1">
<g id="surface1">
<path style=" stroke:none;fill-rule:nonzero;fill:rgb(91.372549%,0%,10.196078%);fill-opacity:1;" d="M 199.125 8.996094 L 199.125 94.96875 C 199.132812 99.941406 195.117188 103.976562 190.164062 103.976562 L 29.730469 103.976562 L 29.730469 95 L 190.195312 95 L 190.195312 8.960938 L 8.929688 8.960938 L 8.929688 83.425781 L 29.730469 104.421875 L 29.730469 117.132812 L 3.648438 90.804688 C 1.3125 88.449219 0 85.257812 0 81.929688 L 0 10.734375 C -0.00390625 4.804688 4.785156 0 10.691406 0 L 190.164062 0 C 195.113281 0 199.125 4.027344 199.125 8.996094 Z M 199.125 8.996094 "/>
<path style=" stroke:none;fill-rule:nonzero;fill:rgb(0%,0%,0%);fill-opacity:1;" d="M 169.410156 19.003906 L 175.699219 19.003906 L 175.699219 48.035156 L 169.410156 48.035156 Z M 169.410156 19.003906 "/>
<path style=" stroke:none;fill-rule:nonzero;fill:rgb(0%,0%,0%);fill-opacity:1;" d="M 69.386719 21.203125 C 68.691406 19.523438 67.058594 18.429688 65.246094 18.429688 C 63.433594 18.429688 61.800781 19.523438 61.105469 21.203125 L 50.050781 47.808594 L 56.863281 47.808594 L 59.503906 41.445312 L 70.988281 41.445312 L 73.628906 47.808594 L 80.441406 47.808594 Z M 61.554688 36.511719 L 65.246094 27.625 L 68.933594 36.511719 Z M 61.554688 36.511719 "/>
<path style=" stroke:none;fill-rule:nonzero;fill:rgb(0%,0%,0%);fill-opacity:1;" d="M 68.773438 56.445312 C 68.085938 54.765625 66.46875 53.671875 64.679688 53.671875 C 62.886719 53.671875 61.273438 54.765625 60.585938 56.445312 L 49.660156 83.054688 L 56.390625 83.054688 L 59.003906 76.6875 L 70.359375 76.6875 L 72.96875 83.054688 L 79.6875 83.054688 Z M 61.027344 71.761719 L 64.671875 62.875 L 68.320312 71.761719 Z M 61.027344 71.761719 "/>
<path style=" stroke:none;fill-rule:nonzero;fill:rgb(0%,0%,0%);fill-opacity:1;" d="M 156.578125 21.203125 C 155.882812 19.523438 154.25 18.429688 152.4375 18.429688 C 150.625 18.429688 148.988281 19.523438 148.296875 21.203125 L 137.242188 47.808594 L 144.054688 47.808594 L 146.707031 41.464844 L 158.195312 41.464844 L 160.835938 47.828125 L 167.648438 47.828125 Z M 148.75 36.511719 L 152.433594 27.625 L 156.125 36.511719 Z M 148.75 36.511719 "/>
<path style=" stroke:none;fill-rule:nonzero;fill:rgb(0%,0%,0%);fill-opacity:1;" d="M 48.230469 54.246094 L 48.230469 79.566406 C 48.230469 83.535156 43.207031 85.136719 40.960938 81.878906 L 29.480469 65.085938 L 29.480469 83.277344 L 23.253906 83.277344 L 23.253906 58.222656 C 23.253906 54.148438 28.421875 52.503906 30.714844 55.847656 L 42.019531 72.359375 L 42.019531 54.246094 Z M 48.230469 54.246094 "/>
<path style=" stroke:none;fill-rule:nonzero;fill:rgb(0%,0%,0%);fill-opacity:1;" d="M 107.289062 19.003906 L 107.289062 44.320312 C 107.289062 48.292969 102.207031 49.894531 99.9375 46.636719 L 88.316406 29.84375 L 88.316406 48.035156 L 82.015625 48.035156 L 82.015625 22.980469 C 82.015625 18.90625 87.242188 17.261719 89.566406 20.605469 L 101.003906 37.117188 L 101.003906 19.003906 Z M 107.289062 19.003906 "/>
<path style=" stroke:none;fill-rule:nonzero;fill:rgb(0%,0%,0%);fill-opacity:1;" d="M 160.792969 83.785156 C 150.230469 83.785156 144.847656 76.546875 144.847656 68.976562 C 144.847656 60.136719 152.199219 53.828125 160.589844 53.828125 C 169.703125 53.828125 176.503906 59.296875 176.503906 69.207031 C 176.496094 76.972656 170.519531 83.785156 160.792969 83.785156 Z M 169.730469 68.996094 C 169.765625 63.324219 166.175781 59.476562 161.203125 59.152344 C 156.378906 58.84375 151.769531 63.132812 151.757812 68.847656 C 151.757812 74.316406 155.707031 78.617188 160.730469 78.644531 C 165.90625 78.667969 169.679688 74.609375 169.71875 68.996094 Z M 169.730469 68.996094 "/>
<path style=" stroke:none;fill-rule:nonzero;fill:rgb(0%,0%,0%);fill-opacity:1;" d="M 132.65625 78.644531 C 127.613281 78.613281 123.652344 74.308594 123.683594 68.847656 C 123.683594 63.132812 128.300781 58.84375 133.125 59.152344 C 135.835938 59.265625 138.34375 60.652344 139.914062 62.902344 L 143.78125 57.710938 C 140.949219 55.160156 137.003906 53.828125 132.5 53.828125 C 124.113281 53.828125 116.761719 60.136719 116.761719 68.976562 C 116.761719 76.546875 122.144531 83.785156 132.707031 83.785156 C 137.234375 83.785156 140.941406 82.328125 143.617188 79.964844 L 139.839844 74.988281 C 138.191406 77.34375 135.5 78.714844 132.65625 78.644531 Z M 132.65625 78.644531 "/>
<path style=" stroke:none;fill-rule:nonzero;fill:rgb(0%,0%,0%);fill-opacity:1;" d="M 112.765625 83.277344 L 106.550781 83.277344 L 106.550781 64.945312 L 100.210938 74.507812 C 99.480469 75.605469 98.265625 76.265625 96.960938 76.265625 C 95.660156 76.265625 94.441406 75.605469 93.714844 74.507812 L 87.371094 64.945312 L 87.371094 83.277344 L 81.15625 83.277344 L 81.15625 58.128906 C 81.15625 53.417969 86.800781 52.792969 89.238281 56.46875 L 96.960938 68.109375 L 104.683594 56.46875 C 107.121094 52.792969 112.765625 53.417969 112.765625 58.128906 Z M 112.765625 83.277344 "/>
<path style=" stroke:none;fill-rule:nonzero;fill:rgb(0%,0%,0%);fill-opacity:1;" d="M 123.304688 19.003906 L 115.523438 19.003906 C 114.148438 19.007812 113.035156 20.125 113.035156 21.503906 L 113.035156 45.535156 C 113.035156 46.914062 114.148438 48.035156 115.523438 48.035156 L 124.144531 48.035156 C 133.363281 48.035156 138.390625 40.886719 138.390625 33.3125 C 138.390625 24.894531 132.523438 19.003906 123.304688 19.003906 Z M 123.304688 42.949219 L 119.308594 42.949219 L 119.308594 24.390625 L 123.304688 24.390625 C 127.914062 24.390625 131.683594 27.421875 131.683594 33.734375 C 131.683594 39.199219 127.496094 42.949219 123.304688 42.949219 Z M 123.304688 42.949219 "/>
<path style=" stroke:none;fill-rule:nonzero;fill:rgb(0%,0%,0%);fill-opacity:1;" d="M 47.867188 26.160156 C 47.867188 22.183594 44.183594 19.003906 39.570312 19.003906 L 25.925781 19.003906 C 24.546875 19.003906 23.433594 20.125 23.433594 21.503906 L 23.433594 45.535156 C 23.433594 46.917969 24.546875 48.035156 25.925781 48.035156 L 42.085938 48.035156 C 46.871094 48.035156 49.511719 44.207031 49.511719 40.273438 C 49.511719 35.835938 46.332031 33.929688 43.230469 33.128906 C 46.761719 31.636719 47.867188 29.632812 47.867188 26.160156 Z M 37.65625 24.394531 C 40.125 24.394531 41.289062 25.585938 41.289062 27.484375 C 41.289062 29.113281 40.296875 31.027344 37.65625 31.027344 L 29.71875 31.027344 L 29.71875 24.390625 Z M 42.804688 39.390625 C 42.804688 41.066406 41.804688 42.949219 38.730469 42.949219 L 29.71875 42.949219 L 29.71875 35.835938 L 38.933594 35.835938 C 41.875 35.835938 42.804688 37.546875 42.804688 39.390625 Z M 42.804688 39.390625 "/>
</g>
</svg>
