<svg xmlns="http://www.w3.org/2000/svg" width="1683" height="562" viewBox="0 0 1683 562"><g fill="none" fill-rule="evenodd" transform="translate(-3)"><rect width="1684" height="562"/><g transform="translate(18.286 157.959)"><path fill="red" d="M36.539549,3.58142354 C140.216806,-10.3449382 223.099198,17.2114797 228.743518,71.1390931 C234.684908,130.992818 142.890432,200.624626 23.4684908,226.403211 C15.4476142,228.181044 7.72380711,229.662572 2.32188636e-13,230.847794 L2.32188636e-13,230.847794 L8.02087662,180.475848 C13.6651972,179.586931 19.3095178,178.401709 25.2509079,177.216487 C116.748315,157.364013 187.153788,104.917928 182.994815,60.7683982 C179.132911,20.7671465 115.262968,0.91467343 35.0542015,12.4705906 L35.0542015,12.4705906 Z M77.8322101,31.434147 C115.262968,34.3972026 140.810945,47.7309532 141.702154,67.5834263 C143.187501,97.8065942 88.2296428,132.17804 19.0124483,144.326568 C17.2300313,144.622874 15.4476142,144.91918 13.6651972,145.215485 L13.6651972,145.215485 L19.0124483,111.732956 C69.2171945,105.806845 109.618647,82.6950103 109.915717,59.8794815 C110.212786,47.1383421 97.7358669,37.0639528 77.8322101,31.434147 Z"/><path fill="#FFF" d="M712.966811,101.658567 L712.966811,117.066456 L794.363855,117.066456 L794.363855,147.289624 C794.363855,151.437902 793.769716,155.289874 792.284368,158.845541 C791.09609,162.401208 789.016604,165.660569 786.937117,168.623625 C784.560561,171.290375 781.886936,173.66082 778.619171,175.142348 C775.351406,176.920181 772.083642,177.512792 768.221738,177.512792 L730.790981,177.512792 L687.418833,177.512792 C689.49832,179.586931 691.280737,181.364764 693.063154,183.438903 C694.845571,185.216737 696.627988,186.99457 698.707474,188.476098 C700.489891,189.957626 702.866447,191.142848 704.945934,191.735459 C707.32249,192.624376 709.996115,192.920682 713.26388,192.920682 L783.075214,192.920682 C789.313673,192.920682 795.255063,191.735459 800.899384,189.365015 C806.543704,186.99457 811.296816,183.735209 815.45579,179.586931 C819.614763,175.438653 822.882527,170.401458 825.259083,165.067958 C827.635639,159.438152 828.823917,153.512041 828.823917,147.289624 L828.823917,101.658567 L739.108927,101.658567 L712.966811,101.658567 Z M955.078457,166.549486 C955.078457,168.031014 954.781387,169.512542 954.187248,170.99407 C953.593109,172.475597 952.701901,173.66082 951.810692,174.549736 C950.622414,175.734959 949.434136,176.32757 948.245858,176.920181 C946.76051,177.512792 945.275163,177.809098 943.789815,177.809098 L891.505583,177.809098 C890.020235,177.809098 888.534888,177.512792 887.04954,176.920181 C885.564193,176.32757 884.375915,175.438653 883.484706,174.549736 C882.296428,173.364514 881.702289,172.179292 881.10815,170.99407 C880.514011,169.512542 880.216941,168.031014 880.216941,166.549486 L880.216941,101.658567 L845.756879,101.658567 L845.756879,166.549486 L846.053948,166.549486 C846.053948,170.105153 846.648087,173.66082 848.133435,176.920181 C849.618783,180.179542 851.4012,182.846292 853.777756,185.513042 C856.154312,187.883487 859.125007,189.957626 862.392771,191.142848 C865.660536,192.624376 869.22537,193.216987 872.790204,193.216987 L963.396403,193.216987 C966.961237,193.216987 970.526071,192.624376 973.793835,191.142848 C977.0616,189.66132 979.735225,187.883487 982.408851,185.513042 C984.785407,183.142598 986.864894,180.179542 988.053172,176.920181 C989.538519,173.66082 990.132658,170.105153 990.132658,166.549486 L990.132658,101.658567 L955.672596,101.658567 L955.672596,166.549486 L955.078457,166.549486 Z M1125.89342,117.066456 C1129.16119,117.066456 1131.83481,116.770151 1134.21137,115.881234 C1136.58792,114.992317 1138.66741,113.807095 1140.7469,112.325567 C1142.82638,110.844039 1144.6088,109.362511 1146.39122,107.288372 C1148.17363,105.510539 1149.95605,103.4364 1152.03554,101.362261 L1006.76855,101.362261 L1006.76855,192.920682 L1152.03554,192.920682 C1149.95605,190.846543 1148.17363,189.068709 1146.39122,187.290876 C1144.6088,185.513042 1142.82638,183.735209 1140.7469,182.253681 C1138.66741,180.772153 1136.58792,179.586931 1134.21137,178.698014 C1131.83481,177.809098 1129.16119,177.512792 1125.89342,177.512792 L1040.93154,177.512792 L1040.93154,154.993569 L1132.42895,154.993569 L1132.42895,139.585679 L1065.58831,139.585679 C1062.61762,139.585679 1059.94399,139.881985 1057.56744,140.770902 C1055.19088,141.363513 1053.40846,142.548735 1051.32898,143.733957 C1049.54656,144.91918 1047.76414,146.400707 1045.98172,148.178541 C1044.19931,149.956374 1042.41689,151.734208 1040.63447,153.512041 L1040.63447,117.066456 L1125.89342,117.066456 Z M1232.54137,140.770902 C1230.16482,141.659818 1228.08533,142.845041 1226.00584,144.030263 C1223.92636,145.511791 1222.14394,146.993319 1220.36152,148.771152 C1218.57911,150.548985 1216.79669,152.623124 1214.7172,154.400958 L1278.29008,154.400958 L1278.29008,177.216487 L1216.20255,177.216487 C1212.34065,177.216487 1209.07288,176.32757 1205.80512,174.846042 C1202.53735,173.068209 1199.86373,170.99407 1197.48717,168.031014 C1195.11062,165.067958 1193.3282,162.104903 1192.13992,158.25293 C1190.95164,154.697263 1190.06043,150.845291 1190.06043,146.697013 C1190.06043,142.548735 1190.65457,138.696763 1192.13992,134.84479 C1193.62527,131.289123 1195.40769,128.029762 1197.78424,125.363012 C1200.1608,122.696262 1202.83442,120.325817 1205.80512,118.84429 C1208.77581,117.362762 1211.74651,116.473845 1215.01427,116.473845 L1286.90509,116.770151 C1290.17286,116.770151 1292.84648,116.473845 1295.22304,115.584928 C1297.5996,114.696012 1299.67908,113.510789 1301.75857,112.029262 C1303.83805,110.547734 1305.62047,109.066206 1307.40289,106.992067 C1309.18531,105.214233 1310.96772,103.140094 1313.04721,101.065955 L1201.34908,101.065955 C1195.11062,101.065955 1189.16923,102.251178 1183.52491,104.621622 C1177.88058,106.992067 1173.12747,110.251428 1168.9685,114.399706 C1164.80953,118.547984 1161.54176,123.288873 1159.16521,128.918679 C1156.78865,134.548485 1155.60037,140.474596 1155.60037,146.697013 C1155.60037,152.91943 1156.78865,158.845541 1159.16521,164.475347 C1161.54176,170.105153 1164.80953,174.846042 1168.9685,178.99432 C1173.12747,183.142598 1177.88058,186.401959 1183.52491,188.772404 C1189.16923,191.142848 1195.11062,192.32807 1201.34908,192.32807 L1278.29008,192.32807 L1312.75014,192.32807 L1312.75014,138.993068 L1240.56225,138.993068 C1237.59156,139.585679 1234.91793,139.881985 1232.54137,140.770902 Z M1477.92078,114.992317 C1473.76181,110.844039 1469.0087,107.584678 1463.36438,105.214233 C1457.72006,102.843789 1451.77867,101.658567 1445.54021,101.658567 L1370.97576,101.658567 C1364.7373,101.658567 1358.79591,102.843789 1353.15159,105.214233 C1347.50727,107.584678 1342.75416,110.844039 1338.59519,114.992317 C1334.43621,119.140595 1331.16845,123.881484 1328.79189,129.51129 C1326.41534,135.141096 1325.22706,141.067207 1325.22706,147.289624 C1325.22706,153.512041 1326.41534,159.438152 1328.79189,165.067958 C1331.16845,170.697764 1334.43621,175.438653 1338.59519,179.586931 C1342.75416,183.735209 1347.50727,186.99457 1353.15159,189.365015 C1358.79591,191.735459 1364.7373,192.920682 1370.97576,192.920682 L1445.83728,192.920682 C1452.07574,192.920682 1458.01713,191.735459 1463.66145,189.365015 C1469.30577,186.99457 1474.05888,183.735209 1478.21785,179.586931 C1482.37683,175.438653 1485.64459,170.697764 1488.02115,165.067958 C1490.3977,159.438152 1491.58598,153.512041 1491.58598,147.289624 C1491.58598,141.067207 1490.3977,135.141096 1488.02115,129.51129 C1485.34752,123.881484 1481.78269,119.140595 1477.92078,114.992317 Z M1455.64057,156.771402 C1454.74936,159.734458 1453.56108,162.697514 1452.07574,165.067958 C1450.59039,167.734708 1448.5109,169.808847 1446.43142,171.586681 C1444.35193,173.364514 1441.97537,174.846042 1439.30175,176.031264 C1436.92519,177.216487 1434.54864,177.809098 1432.17208,177.809098 L1384.34389,177.809098 C1381.67026,177.809098 1379.29371,177.216487 1377.21422,176.031264 C1374.5406,174.846042 1372.46111,173.66082 1370.08455,171.586681 C1368.00507,169.808847 1366.22265,167.438403 1364.44023,165.067958 C1362.95489,162.401208 1361.76661,159.734458 1360.8754,156.771402 C1359.98419,153.808347 1359.68712,150.548985 1359.68712,147.289624 C1359.68712,144.030263 1359.98419,140.770902 1360.8754,137.807846 C1361.76661,134.84479 1362.95489,131.881735 1364.44023,129.51129 C1365.92558,126.84454 1368.00507,124.770401 1370.08455,122.992568 C1372.16404,121.214734 1374.5406,119.733206 1377.21422,118.547984 C1379.59078,117.362762 1381.96733,116.770151 1384.34389,116.770151 L1432.17208,116.770151 C1434.54864,116.770151 1436.92519,117.362762 1439.30175,118.547984 C1441.97537,119.733206 1444.05486,120.918429 1446.43142,122.992568 C1448.5109,124.770401 1450.29332,127.140845 1452.07574,129.51129 C1453.56108,132.17804 1454.74936,134.84479 1455.64057,137.807846 C1456.53178,140.770902 1456.82885,144.030263 1456.82885,147.289624 C1456.53178,150.548985 1456.53178,153.808347 1455.64057,156.771402 Z M1635.66469,147.289624 C1633.28814,144.91918 1630.31744,143.141346 1627.34675,141.659818 C1624.07898,140.17829 1620.81122,139.585679 1617.24638,139.585679 L1548.02919,139.585679 C1546.54384,139.585679 1545.05849,139.289374 1543.57314,138.696763 C1542.0878,138.104152 1540.89952,137.215235 1540.00831,136.326318 C1538.82003,135.141096 1538.22589,133.955874 1537.63175,132.770651 C1537.03762,131.289123 1536.74055,129.807596 1536.74055,128.326068 C1536.74055,125.066707 1537.92882,122.696262 1540.00831,120.325817 C1542.38487,118.251678 1545.05849,117.066456 1548.02919,117.066456 L1619.0288,117.066456 C1622.59363,117.066456 1625.8614,116.473845 1628.83209,114.992317 C1631.80279,113.807095 1634.47641,111.732956 1637.15004,109.362511 L1644.87385,101.658567 L1528.71967,101.658567 C1525.15484,101.658567 1521.59,102.251178 1518.32224,103.732706 C1515.05447,105.214233 1512.38085,106.992067 1509.70722,109.362511 C1507.33067,111.732956 1505.25118,114.696012 1504.0629,117.955373 C1502.57755,121.214734 1501.98341,124.770401 1501.98341,128.326068 C1501.98341,132.474346 1502.87462,136.030013 1504.65704,139.881985 C1505.84532,142.845041 1507.62773,145.215485 1510.00429,147.58593 C1512.38085,149.956374 1515.35154,151.734208 1518.32224,153.215735 C1521.59,154.697263 1524.85777,155.289874 1528.4226,155.289874 L1597.63979,155.289874 C1599.12514,155.289874 1600.61049,155.58618 1602.09584,156.178791 C1603.58118,156.771402 1604.76946,157.660319 1605.66067,158.549236 C1606.84895,159.734458 1607.44309,160.91968 1608.03723,162.104903 C1608.63137,163.58643 1608.92844,165.067958 1608.92844,166.549486 C1608.92844,169.808847 1607.74016,172.475597 1605.66067,174.549736 C1603.28412,176.623875 1600.61049,177.809098 1597.63979,177.809098 L1526.34311,177.809098 C1519.21345,177.809098 1513.27206,180.475848 1508.22187,185.513042 L1500.49807,193.216987 L1616.65224,193.216987 C1620.21708,193.216987 1623.78191,192.624376 1627.04968,191.142848 C1630.31744,189.66132 1632.99107,187.883487 1635.66469,185.513042 C1638.04125,183.142598 1640.12073,180.179542 1641.30901,176.920181 C1642.79436,173.66082 1643.3885,170.105153 1643.3885,166.549486 C1643.3885,162.401208 1642.49729,158.549236 1640.71487,154.993569 C1639.82366,152.326819 1637.74418,149.660069 1635.66469,147.289624 Z M429.859573,113.510789 C439.662866,107.584678 447.980813,96.3250664 447.980813,81.2134824 C447.980813,53.360759 428.077156,37.6565639 393.617093,37.6565639 L291.722253,37.6565639 L290.236906,37.6565639 L289.345697,38.8417862 L273.601014,59.2868704 L269.73911,64.324065 L276.274639,64.324065 L394.508302,64.324065 C405.499873,64.324065 418.570932,67.8797318 418.570932,84.4728437 C418.570932,94.8435385 408.470569,102.843789 399.855553,102.843789 L323.211621,102.843789 L321.429204,102.843789 L320.537995,104.029011 L307.466937,122.103651 L303.902103,127.140845 L310.140563,127.140845 L399.261414,127.140845 C413.81782,127.140845 420.353349,136.622624 420.353349,145.808096 C420.353349,162.993819 405.499873,166.549486 393.320024,166.549486 L285.186724,166.549486 L283.701377,166.549486 L282.810168,167.734708 L267.065484,188.179793 L263.203581,193.216987 L269.73911,193.216987 L393.320024,193.216987 C413.223681,193.216987 428.077156,188.772404 437.880449,180.475848 C446.495465,172.771903 450.951508,162.104903 450.951508,148.771152 C450.951508,130.400207 440.851145,118.84429 429.859573,113.510789 Z M627.410793,58.9905648 C611.66611,45.3605087 589.682966,37.6565639 565.026197,37.6565639 L487.491057,37.6565639 L486.005709,37.6565639 L485.114501,38.8417862 L469.369817,59.2868704 L465.507913,64.324065 L472.043442,64.324065 L565.323267,64.324065 C598.297982,64.324065 622.063542,85.6580659 622.063542,114.992317 C622.063542,144.91918 598.297982,166.549486 565.323267,166.549486 L499.373837,166.549486 L499.373837,97.2139831 L499.373837,93.9546218 L496.106072,93.9546218 L471.746373,93.9546218 L468.775678,93.9546218 L468.775678,97.2139831 L468.775678,190.550237 L468.775678,193.809598 L472.043442,193.809598 L565.323267,193.809598 C614.933874,193.809598 652.364632,159.734458 652.364632,114.399706 C652.067562,92.473094 643.452546,72.9169265 627.410793,58.9905648 Z"/></g></g></svg>